<svg width="348.908984375px" height="112.39999999999999px" xmlns="http://www.w3.org/2000/svg" viewBox="75.5455078125 18.800000000000004 348.908984375 112.39999999999999" style="background: none;" preserveAspectRatio="xMidYMid"><defs><filter id="editing-hover" x="-100%" y="-100%" width="300%" height="300%"><feFlood flood-color="#bbcedd" result="flood"></feFlood><feComposite operator="in" in2="SourceAlpha" in="flood" result="shadow"></feComposite><feOffset dx="-4" dy="-4" in="SourceGraphic" result="offset-1"></feOffset><feOffset dx="4" dy="4" in="shadow" result="offset-2"></feOffset><feMerge><feMergeNode in="offset-2"></feMergeNode><feMergeNode in="offset-1"></feMergeNode></feMerge></filter></defs><g filter="url(#editing-hover)"><g transform="translate(129.58182281255722, 99.16000175476074)"><path d="M10.88-2.11L-0.19 0.06L-0.19 0.06Q1.73-8.58 3.46-16.83L3.46-16.83L3.46-16.83Q4.16-20.29 4.93-24.13L4.93-24.13L4.93-24.13Q5.70-27.97 6.40-31.68L6.40-31.68L6.40-31.68Q7.10-35.39 7.74-38.85L7.74-38.85L7.74-38.85Q8.38-42.30 8.83-45.18L8.83-45.18L8.83-45.18Q10.69-45.76 12.48-46.18L12.48-46.18L12.48-46.18Q14.27-46.59 16.16-46.91L16.16-46.91L16.16-46.91Q18.05-47.23 19.71-47.23L19.71-47.23L19.71-47.23Q22.59-47.23 24.54-46.27L24.54-46.27L24.54-46.27Q26.50-45.31 27.71-43.68L27.71-43.68L27.71-43.68Q28.93-42.05 29.44-39.87L29.44-39.87L29.44-39.87Q29.95-37.70 29.95-35.20L29.95-35.20L29.95-35.20Q29.95-31.62 28.64-28.29L28.64-28.29L28.64-28.29Q27.33-24.96 25.12-22.37L25.12-22.37L25.12-22.37Q22.91-19.78 20.06-18.24L20.06-18.24L20.06-18.24Q17.22-16.70 14.14-16.70L14.14-16.70L13.44-16.70L13.44-16.70Q12.93-14.53 12.48-11.97L12.48-11.97L12.48-11.97Q12.03-9.41 11.71-7.23L11.71-7.23L11.71-7.23Q11.26-4.67 10.88-2.11L10.88-2.11ZM17.66-39.49L17.66-39.49Q16.96-35.26 16.26-31.49L16.26-31.49L16.26-31.49Q15.55-27.71 14.72-23.42L14.72-23.42L14.72-23.42Q15.74-23.68 16.86-24.61L16.86-24.61L16.86-24.61Q17.98-25.54 18.94-27.04L18.94-27.04L18.94-27.04Q19.90-28.54 20.48-30.53L20.48-30.53L20.48-30.53Q21.06-32.51 21.06-34.69L21.06-34.69L21.06-34.69Q21.06-37.06 20-38.27L20-38.27L20-38.27Q18.94-39.49 17.66-39.49L17.66-39.49ZM47.81-1.28L47.81-1.28Q46.21-1.02 44.29-0.70L44.29-0.70L44.29-0.70Q42.37-0.38 40.83-0.13L40.83-0.13L40.83-0.13Q41.09-2.24 41.34-4.29L41.34-4.29L41.34-4.29Q41.54-6.08 41.70-7.87L41.70-7.87L41.70-7.87Q41.86-9.66 41.98-10.94L41.98-10.94L36.42-10.94L33.86-1.73L33.86-1.73Q32.45-1.54 30.53-1.31L30.53-1.31L30.53-1.31Q28.61-1.09 26.94-0.90L26.94-0.90L26.94-0.90Q24.90-0.64 22.91-0.38L22.91-0.38L22.91-0.38Q25.47-8.90 27.97-17.15L27.97-17.15L27.97-17.15Q28.99-20.61 30.11-24.38L30.11-24.38L30.11-24.38Q31.23-28.16 32.35-31.90L32.35-31.90L32.35-31.90Q33.47-35.65 34.50-39.10L34.50-39.10L34.50-39.10Q35.52-42.56 36.29-45.44L36.29-45.44L36.29-45.44Q40.64-45.76 45.15-46.21L45.15-46.21L45.15-46.21Q49.66-46.66 53.95-47.42L53.95-47.42L53.95-47.42Q53.76-45.38 53.54-42.34L53.54-42.34L53.54-42.34Q53.31-39.30 53.12-35.71L53.12-35.71L53.12-35.71Q52.93-32.13 52.74-28.22L52.74-28.22L52.74-28.22Q52.54-24.32 52.35-20.54L52.35-20.54L52.35-20.54Q52.03-11.71 51.65-1.79L51.65-1.79L51.65-1.79Q49.73-1.47 47.81-1.28L47.81-1.28ZM41.92-33.41L37.95-17.34L37.95-17.34Q38.21-17.34 38.88-17.38L38.88-17.38L38.88-17.38Q39.55-17.41 40.29-17.44L40.29-17.44L40.29-17.44Q41.02-17.47 41.66-17.50L41.66-17.50L41.66-17.50Q42.30-17.54 42.56-17.60L42.56-17.60L42.56-17.60Q42.56-17.98 42.66-18.91L42.66-18.91L42.66-18.91Q42.75-19.84 42.85-21.02L42.85-21.02L42.85-21.02Q42.94-22.21 43.07-23.62L43.07-23.62L43.07-23.62Q43.20-25.02 43.33-26.37L43.33-26.37L43.33-26.37Q43.58-29.63 43.97-33.41L43.97-33.41L44.35-38.98L43.39-38.91L41.92-33.41ZM61.63-1.86L52.29 0.32L52.29 0.32Q54.21-8.90 55.94-17.54L55.94-17.54L55.94-17.54Q56.58-21.25 57.31-25.22L57.31-25.22L57.31-25.22Q58.05-29.18 58.69-33.06L58.69-33.06L58.69-33.06Q59.33-36.93 59.84-40.48L59.84-40.48L59.84-40.48Q60.35-44.03 60.61-46.91L60.61-46.91L60.61-46.91Q61.44-46.85 62.02-46.85L62.02-46.85L62.02-46.85Q62.59-46.85 63.36-46.85L63.36-46.85L63.36-46.85Q64.26-46.85 65.54-46.88L65.54-46.88L65.54-46.88Q66.82-46.91 68.10-46.98L68.10-46.98L68.10-46.98Q69.38-47.04 70.85-47.10L70.85-47.10L70.85-47.10Q71.74-42.62 72.45-38.46L72.45-38.46L72.45-38.46Q73.15-34.82 73.89-30.98L73.89-30.98L73.89-30.98Q74.62-27.14 75.20-24.45L75.20-24.45L75.20-24.45Q75.46-25.73 75.78-27.42L75.78-27.42L75.78-27.42Q76.10-29.12 76.48-30.98L76.48-30.98L76.48-30.98Q76.86-32.83 77.22-34.72L77.22-34.72L77.22-34.72Q77.57-36.61 77.95-38.46L77.95-38.46L77.95-38.46Q78.85-42.62 79.81-47.04L79.81-47.04L87.62-48L87.62-48Q85.44-38.21 83.78-29.44L83.78-29.44L83.78-29.44Q83.01-25.66 82.27-21.79L82.27-21.79L82.27-21.79Q81.54-17.92 80.90-14.37L80.90-14.37L80.90-14.37Q80.26-10.82 79.81-7.78L79.81-7.78L79.81-7.78Q79.36-4.74 79.10-2.69L79.10-2.69L79.10-2.69Q78.91-2.69 77.60-2.40L77.60-2.40L77.60-2.40Q76.29-2.11 74.59-1.73L74.59-1.73L74.59-1.73Q72.90-1.34 71.20-0.96L71.20-0.96L71.20-0.96Q69.50-0.58 68.67-0.26L68.67-0.26L68.67-0.26Q68.29-5.38 67.84-9.98L67.84-9.98L67.84-9.98Q67.65-11.97 67.42-14.05L67.42-14.05L67.42-14.05Q67.20-16.13 66.94-18.05L66.94-18.05L66.94-18.05Q66.69-19.97 66.43-21.63L66.43-21.63L66.43-21.63Q66.18-23.30 65.92-24.51L65.92-24.51L65.92-24.51Q65.73-23.30 65.41-21.70L65.41-21.70L65.41-21.70Q65.09-20.10 64.77-18.30L64.77-18.30L64.77-18.30Q64.45-16.51 64.13-14.56L64.13-14.56L64.13-14.56Q63.81-12.61 63.42-10.82L63.42-10.82L63.42-10.82Q62.59-6.53 61.63-1.86L61.63-1.86ZM98.18-1.73L86.66 0.06L86.66 0.06Q88.13-6.98 89.47-13.82L89.47-13.82L89.47-13.82Q90.05-16.70 90.62-19.84L90.62-19.84L90.62-19.84Q91.20-22.98 91.74-26.02L91.74-26.02L91.74-26.02Q92.29-29.06 92.70-31.90L92.70-31.90L92.70-31.90Q93.12-34.75 93.44-37.12L93.44-37.12L93.44-37.12Q91.97-37.31 90.46-37.25L90.46-37.25L90.46-37.25Q88.96-37.18 87.49-37.63L87.49-37.63L87.49-37.63Q87.55-38.66 87.55-40L87.55-40L87.55-40Q87.55-41.34 87.62-42.69L87.62-42.69L87.62-42.69Q87.68-44.16 87.74-45.82L87.74-45.82L87.74-45.82Q89.41-45.70 91.07-45.63L91.07-45.63L91.07-45.63Q92.74-45.57 94.40-45.57L94.40-45.57L94.40-45.57Q97.66-45.57 100.70-45.73L100.70-45.73L100.70-45.73Q103.74-45.89 106.34-46.11L106.34-46.11L106.34-46.11Q108.93-46.34 111.42-46.66L111.42-46.66L110.72-43.20L110.72-43.20Q110.40-41.73 110.11-40.19L110.11-40.19L110.11-40.19Q109.82-38.66 109.57-37.57L109.57-37.57L109.57-37.57Q108.16-37.18 106.72-37.02L106.72-37.02L106.72-37.02Q105.28-36.86 103.87-36.61L103.87-36.61L103.87-36.61Q103.42-34.43 102.91-31.78L102.91-31.78L102.91-31.78Q102.40-29.12 101.92-26.27L101.92-26.27L101.92-26.27Q101.44-23.42 100.99-20.48L100.99-20.48L100.99-20.48Q100.54-17.54 100.10-14.85L100.10-14.85L100.10-14.85Q99.07-8.51 98.18-1.73L98.18-1.73ZM114.69-2.62L104.32 0.06L104.32 0.06Q106.05-8.45 107.65-16.58L107.65-16.58L107.65-16.58Q108.22-20.03 108.93-23.78L108.93-23.78L108.93-23.78Q109.63-27.52 110.24-31.20L110.24-31.20L110.24-31.20Q110.85-34.88 111.39-38.30L111.39-38.30L111.39-38.30Q111.94-41.73 112.26-44.54L112.26-44.54L112.26-44.54Q115.90-45.70 120.13-46.24L120.13-46.24L120.13-46.24Q124.35-46.78 128.51-46.78L128.51-46.78L128.51-46.78Q131.01-46.78 132.64-46.21L132.64-46.21L132.64-46.21Q134.27-45.63 135.20-44.58L135.20-44.58L135.20-44.58Q136.13-43.52 136.51-42.11L136.51-42.11L136.51-42.11Q136.90-40.70 136.90-38.98L136.90-38.98L136.90-38.98Q136.90-36.42 136-33.95L136-33.95L136-33.95Q135.10-31.49 133.60-29.28L133.60-29.28L133.60-29.28Q132.10-27.07 130.14-25.25L130.14-25.25L130.14-25.25Q128.19-23.42 125.95-22.27L125.95-22.27L125.95-22.27Q127.10-19.71 128.42-16.67L128.42-16.67L128.42-16.67Q129.73-13.63 130.88-10.88L130.88-10.88L130.88-10.88Q132.16-7.68 133.50-4.48L133.50-4.48L123.58-1.02L123.58-1.02Q122.30-5.12 121.28-8.70L121.28-8.70L121.28-8.70Q120.83-10.18 120.38-11.74L120.38-11.74L120.38-11.74Q119.94-13.31 119.55-14.72L119.55-14.72L119.55-14.72Q119.17-16.13 118.91-17.25L118.91-17.25L118.91-17.25Q118.66-18.37 118.59-19.07L118.59-19.07L117.76-18.82L117.76-18.82Q117.38-16.77 116.83-14.02L116.83-14.02L116.83-14.02Q116.29-11.26 115.84-8.70L115.84-8.70L115.84-8.70Q115.26-5.70 114.69-2.62L114.69-2.62ZM121.41-37.89L119.36-27.71L119.36-27.71Q120.58-27.84 122.34-28.74L122.34-28.74L122.34-28.74Q124.10-29.63 125.70-30.88L125.70-30.88L125.70-30.88Q127.30-32.13 128.45-33.47L128.45-33.47L128.45-33.47Q129.60-34.82 129.60-35.84L129.60-35.84L129.60-35.84Q129.60-36.54 129.15-36.96L129.15-36.96L129.15-36.96Q128.70-37.38 127.90-37.60L127.90-37.60L127.90-37.60Q127.10-37.82 126.14-37.89L126.14-37.89L126.14-37.89Q125.18-37.95 124.16-37.95L124.16-37.95L124.16-37.95Q123.46-37.95 122.72-37.92L122.72-37.92L122.72-37.92Q121.98-37.89 121.41-37.89L121.41-37.89ZM148.35-2.30L137.41-0.96L140.35-13.82L140.35-13.82Q140.35-16.58 140.26-19.81L140.26-19.81L140.26-19.81Q140.16-23.04 139.97-26.30L139.97-26.30L139.97-26.30Q139.78-29.57 139.58-32.61L139.58-32.61L139.58-32.61Q139.39-35.65 139.26-37.98L139.26-37.98L139.26-37.98Q139.14-40.32 139.01-41.73L139.01-41.73L139.01-41.73Q138.88-43.14 138.88-43.14L138.88-43.14L149.31-47.10L149.31-39.30L149.31-39.30Q149.31-37.70 149.31-36.03L149.31-36.03L149.31-36.03Q149.31-34.37 149.28-32.77L149.28-32.77L149.28-32.77Q149.25-31.17 149.25-29.76L149.25-29.76L149.25-29.76Q149.25-28.35 149.25-27.39L149.25-27.39L149.25-27.39Q150.08-29.57 151.26-32.77L151.26-32.77L151.26-32.77Q152.45-35.97 153.47-38.98L153.47-38.98L153.47-38.98Q154.69-42.50 155.97-46.40L155.97-46.40L165.89-44.16L165.89-44.16Q163.14-38.66 160.51-33.22L160.51-33.22L160.51-33.22Q159.42-30.85 158.21-28.32L158.21-28.32L158.21-28.32Q156.99-25.79 155.78-23.26L155.78-23.26L155.78-23.26Q154.56-20.74 153.41-18.37L153.41-18.37L153.41-18.37Q152.26-16 151.30-13.95L151.30-13.95L151.30-13.95Q150.98-12.29 150.50-10.30L150.50-10.30L150.50-10.30Q150.02-8.32 149.57-6.53L149.57-6.53L149.57-6.53Q148.99-4.42 148.35-2.30L148.35-2.30ZM180.42-2.11L169.34 0.06L169.34 0.06Q171.26-8.58 172.99-16.83L172.99-16.83L172.99-16.83Q173.70-20.29 174.46-24.13L174.46-24.13L174.46-24.13Q175.23-27.97 175.94-31.68L175.94-31.68L175.94-31.68Q176.64-35.39 177.28-38.85L177.28-38.85L177.28-38.85Q177.92-42.30 178.37-45.18L178.37-45.18L178.37-45.18Q180.22-45.76 182.02-46.18L182.02-46.18L182.02-46.18Q183.81-46.59 185.70-46.91L185.70-46.91L185.70-46.91Q187.58-47.23 189.25-47.23L189.25-47.23L189.25-47.23Q192.13-47.23 194.08-46.27L194.08-46.27L194.08-46.27Q196.03-45.31 197.25-43.68L197.25-43.68L197.25-43.68Q198.46-42.05 198.98-39.87L198.98-39.87L198.98-39.87Q199.49-37.70 199.49-35.20L199.49-35.20L199.49-35.20Q199.49-31.62 198.18-28.29L198.18-28.29L198.18-28.29Q196.86-24.96 194.66-22.37L194.66-22.37L194.66-22.37Q192.45-19.78 189.60-18.24L189.60-18.24L189.60-18.24Q186.75-16.70 183.68-16.70L183.68-16.70L182.98-16.70L182.98-16.70Q182.46-14.53 182.02-11.97L182.02-11.97L182.02-11.97Q181.57-9.41 181.25-7.23L181.25-7.23L181.25-7.23Q180.80-4.67 180.42-2.11L180.42-2.11ZM187.20-39.49L187.20-39.49Q186.50-35.26 185.79-31.49L185.79-31.49L185.79-31.49Q185.09-27.71 184.26-23.42L184.26-23.42L184.26-23.42Q185.28-23.68 186.40-24.61L186.40-24.61L186.40-24.61Q187.52-25.54 188.48-27.04L188.48-27.04L188.48-27.04Q189.44-28.54 190.02-30.53L190.02-30.53L190.02-30.53Q190.59-32.51 190.59-34.69L190.59-34.69L190.59-34.69Q190.59-37.06 189.54-38.27L189.54-38.27L189.54-38.27Q188.48-39.49 187.20-39.49L187.20-39.49ZM217.34-1.28L217.34-1.28Q215.74-1.02 213.82-0.70L213.82-0.70L213.82-0.70Q211.90-0.38 210.37-0.13L210.37-0.13L210.37-0.13Q210.62-2.24 210.88-4.29L210.88-4.29L210.88-4.29Q211.07-6.08 211.23-7.87L211.23-7.87L211.23-7.87Q211.39-9.66 211.52-10.94L211.52-10.94L205.95-10.94L203.39-1.73L203.39-1.73Q201.98-1.54 200.06-1.31L200.06-1.31L200.06-1.31Q198.14-1.09 196.48-0.90L196.48-0.90L196.48-0.90Q194.43-0.64 192.45-0.38L192.45-0.38L192.45-0.38Q195.01-8.90 197.50-17.15L197.50-17.15L197.50-17.15Q198.53-20.61 199.65-24.38L199.65-24.38L199.65-24.38Q200.77-28.16 201.89-31.90L201.89-31.90L201.89-31.90Q203.01-35.65 204.03-39.10L204.03-39.10L204.03-39.10Q205.06-42.56 205.82-45.44L205.82-45.44L205.82-45.44Q210.18-45.76 214.69-46.21L214.69-46.21L214.69-46.21Q219.20-46.66 223.49-47.42L223.49-47.42L223.49-47.42Q223.30-45.38 223.07-42.34L223.07-42.34L223.07-42.34Q222.85-39.30 222.66-35.71L222.66-35.71L222.66-35.71Q222.46-32.13 222.27-28.22L222.27-28.22L222.27-28.22Q222.08-24.32 221.89-20.54L221.89-20.54L221.89-20.54Q221.57-11.71 221.18-1.79L221.18-1.79L221.18-1.79Q219.26-1.47 217.34-1.28L217.34-1.28ZM211.46-33.41L207.49-17.34L207.49-17.34Q207.74-17.34 208.42-17.38L208.42-17.38L208.42-17.38Q209.09-17.41 209.82-17.44L209.82-17.44L209.82-17.44Q210.56-17.47 211.20-17.50L211.20-17.50L211.20-17.50Q211.84-17.54 212.10-17.60L212.10-17.60L212.10-17.60Q212.10-17.98 212.19-18.91L212.19-18.91L212.19-18.91Q212.29-19.84 212.38-21.02L212.38-21.02L212.38-21.02Q212.48-22.21 212.61-23.62L212.61-23.62L212.61-23.62Q212.74-25.02 212.86-26.37L212.86-26.37L212.86-26.37Q213.12-29.63 213.50-33.41L213.50-33.41L213.89-38.98L212.93-38.91L211.46-33.41ZM239.17-2.05L239.17-2.05Q237.18-2.05 234.98-1.92L234.98-1.92L234.98-1.92Q232.77-1.79 230.53-1.54L230.53-1.54L230.53-1.54Q228.29-1.28 226.14-0.86L226.14-0.86L226.14-0.86Q224.00-0.45 222.27 0.13L222.27 0.13L222.27 0.13Q222.66-2.75 223.17-6.27L223.17-6.27L223.17-6.27Q223.68-9.79 224.35-13.57L224.35-13.57L224.35-13.57Q225.02-17.34 225.70-21.18L225.70-21.18L225.70-21.18Q226.37-25.02 227.07-28.54L227.07-28.54L227.07-28.54Q228.67-36.93 230.46-45.63L230.46-45.63L241.66-47.10L241.66-47.10Q239.94-39.68 238.34-32.64L238.34-32.64L238.34-32.64Q237.63-29.63 236.93-26.40L236.93-26.40L236.93-26.40Q236.22-23.17 235.58-20.10L235.58-20.10L235.58-20.10Q234.94-17.02 234.43-14.14L234.43-14.14L234.43-14.14Q233.92-11.26 233.60-9.02L233.60-9.02L233.60-9.02Q235.20-9.15 237.02-9.18L237.02-9.18L237.02-9.18Q238.85-9.22 240.26-9.22L240.26-9.22L240.26-9.22Q240.32-8 240.45-6.82L240.45-6.82L240.45-6.82Q240.58-5.63 240.74-4.67L240.74-4.67L240.74-4.67Q240.90-3.71 240.99-2.98L240.99-2.98L240.99-2.98Q241.09-2.24 241.15-1.98L241.15-1.98L241.15-1.98Q240.64-1.98 240.16-2.02L240.16-2.02L240.16-2.02Q239.68-2.05 239.17-2.05L239.17-2.05Z" fill="#fdfdfd"></path></g></g><style>text {
  font-size: 64px;
  font-family: Arial Black;
  dominant-baseline: central;
  text-anchor: middle;
}</style></svg>